<svg width="26" height="29" viewBox="0 0 26 29" fill="none" xmlns="http://www.w3.org/2000/svg">
<path opacity="0.70" d="M1.75133 26.495C1.55335 26.495 1.36038 26.415 1.22039 26.275C1.03342 26.0881 0.958426 25.8121 1.02542 25.5551L2.84519 18.616C2.84919 18.602 2.85419 18.585 2.86119 18.569C2.86519 18.553 2.87219 18.533 2.88119 18.513C2.88818 18.497 2.90318 18.468 2.91218 18.453C2.91518 18.446 2.92418 18.429 2.93518 18.412C2.95918 18.374 2.98617 18.338 3.01517 18.305C3.02317 18.295 3.05016 18.267 3.05416 18.263L17.5284 3.79184C18.3513 2.96494 19.4491 2.508 20.619 2.505C21.7958 2.505 22.8937 2.95794 23.7196 3.77984C23.7236 3.78384 23.7356 3.79584 23.7386 3.79884C24.5645 4.64473 25.0114 5.75359 24.9984 6.92345C24.9844 8.0923 24.5165 9.18616 23.6796 10.0031L9.22339 24.4563C9.20739 24.4723 9.1734 24.5002 9.1544 24.5132C9.1474 24.5202 9.1284 24.5342 9.10741 24.5482C9.03842 24.5962 8.96243 24.6312 8.88344 24.6522L1.9423 26.47C1.88031 26.486 1.81632 26.495 1.75133 26.495ZM2.8022 24.6942L7.66559 23.4204L6.58972 20.9097L4.07604 19.8368L2.8022 24.6942ZM8.95043 22.6085L19.5931 11.9678L18.0923 10.468L8.05054 20.5078L8.95043 22.6085ZM6.98867 19.4489L17.0314 9.40814L15.5316 7.90932L4.88693 18.551L6.98867 19.4489ZM20.654 10.9079L21.6818 9.88008L17.6203 5.82059L16.5925 6.84846L20.654 10.9079ZM22.7407 8.81721C23.2226 8.29128 23.4906 7.61936 23.4986 6.90545C23.5076 6.13655 23.2166 5.41064 22.6797 4.86071C22.6757 4.85671 22.6647 4.84471 22.6627 4.84271C22.1188 4.30178 21.3969 4.00381 20.631 4.00381L20.623 3.62886L20.624 4.00381C19.8981 4.00581 19.2151 4.27378 18.6842 4.76072L22.7407 8.81721Z" fill="white" fill-opacity="0.65"/>
</svg>
