<svg
  width="36"
  height="38"
  viewBox="0 0 36 38"
  fill="none"
  xmlns="http://www.w3.org/2000/svg"
  className="text-white mr-xs hidden md:block"
>
  <rect
    width="36"
    height="37.3951"
    rx="18"
    fill="white"
    className="fill-current"
  />
  <path
    fillRule="evenodd"
    clipRule="evenodd"
    d="M20.1483 21.6717V20.1843C20.4705 20.0184 21.3919 18.8791 21.4885 17.9889C21.7419 17.9688 22.14 17.7271 22.2575 16.773C22.3205 16.2606 22.0699 15.9728 21.918 15.8821C21.918 15.8821 22.2961 15.1361 22.2961 14.2355C22.2961 12.4299 21.6138 10.889 20.1483 10.889C20.1483 10.889 19.6392 9.77344 18.0004 9.77344C14.9634 9.77344 13.7048 11.797 13.7048 14.2355C13.7048 15.0566 14.0828 15.8821 14.0828 15.8821C13.9311 15.9728 13.6805 16.2613 13.7435 16.773C13.8609 17.7271 14.2589 17.9688 14.5124 17.9889C14.609 18.8791 15.5305 20.0184 15.8526 20.1843V21.6717C15.1367 23.9026 9.40918 22.4153 9.40918 27.6211H26.5917C26.5917 22.4153 20.8642 23.9026 20.1483 21.6717Z"
    fill="#1B202B"
  />
</svg>