<svg
  width="22"
  height="22"
  viewBox="0 0 22 22"
  fill="none"
  xmlns="http://www.w3.org/2000/svg"
>
  <path
    fillRule="evenodd"
    clipRule="evenodd"
    d="M14.2929 6.29289C14.6834 5.90237 15.3166 5.90237 15.7071 6.29289L19.7065 10.2923L19.7071 10.2929C19.803 10.3888 19.8753 10.4993 19.9241 10.6172C19.973 10.7351 20 10.8644 20 11C20 11.135 19.9732 11.2639 19.9247 11.3814C19.9006 11.4398 19.8708 11.4963 19.8352 11.5502C19.7986 11.6057 19.7559 11.6583 19.7071 11.7071L19.7065 11.7077L15.7071 15.7071C15.3166 16.0976 14.6834 16.0976 14.2929 15.7071C13.9024 15.3166 13.9024 14.6834 14.2929 14.2929L16.5858 12H3C2.44771 12 2 11.5523 2 11C2 10.4477 2.44771 10 3 10H16.5858L14.2929 7.70711C13.9024 7.31658 13.9024 6.68342 14.2929 6.29289Z"
    fill="#1B202B"
  />
</svg>