<svg
              width="22"
              height="22"
              viewBox="0 0 22 22"
              fill="none"
              xmlns="http://www.w3.org/2000/svg"
              className="mr-5 text-white"
            >
              <path
                fillRule="evenodd"
                clipRule="evenodd"
                d="M7.70711 15.7071C7.31658 16.0976 6.68342 16.0976 6.29289 15.7071L2.29348 11.7077L2.29289 11.7071C2.19702 11.6112 2.12468 11.5007 2.07588 11.3828C2.02699 11.2649 2 11.1356 2 11C2 10.865 2.02677 10.7362 2.0753 10.6186C2.09935 10.5602 2.12917 10.5037 2.16475 10.4498C2.20137 10.3943 2.24408 10.3417 2.29289 10.2929L2.29348 10.2923L6.29289 6.29289C6.68342 5.90237 7.31658 5.90237 7.70711 6.29289C8.09763 6.68342 8.09763 7.31658 7.70711 7.70711L5.41421 10H19C19.5523 10 20 10.4477 20 11C20 11.5523 19.5523 12 19 12H5.41421L7.70711 14.2929C8.09763 14.6834 8.09763 15.3166 7.70711 15.7071Z"
                fill="white"
                className="fill-current"
              />
            </svg>