<svg
  width="56"
  height="56"
  viewBox="0 0 56 56"
  fill="none"
  xmlns="http://www.w3.org/2000/svg"
>
  <path
    d="M55.5 28C55.5 43.1878 43.1878 55.5 28 55.5C12.8122 55.5 0.5 43.1878 0.5 28C0.5 12.8122 12.8122 0.5 28 0.5C43.1878 0.5 55.5 12.8122 55.5 28Z"
    stroke="#DBDEE7"
    className="stroke-current"
  />
  <path
    fillRule="evenodd"
    clipRule="evenodd"
    d="M29.166 17.5C29.5561 17.5 29.9204 17.695 30.1367 18.0195L34.4571 24.5H38.4994C39.1437 24.5 39.666 25.0223 39.666 25.6667V26.8333C39.666 27.4777 39.1437 28 38.4994 28L37.5633 36.4244C37.432 37.606 36.4332 38.5 35.2442 38.5H23.0878C21.8988 38.5 20.9 37.606 20.7687 36.4244L19.8327 28C19.1884 28 18.666 27.4777 18.666 26.8333V25.6667C18.666 25.0223 19.1883 24.5 19.8327 24.5H23.875L28.1953 18.0195C28.4117 17.695 28.7759 17.5 29.166 17.5ZM29.166 20.7699L31.6528 24.5H26.6793L29.166 20.7699ZM25.666 29.1667C25.0217 29.1667 24.4993 29.689 24.4993 30.3333V35C24.4993 35.6444 25.0217 36.1667 25.666 36.1667C26.3103 36.1667 26.8327 35.6444 26.8327 35V30.3333C26.8327 29.689 26.3103 29.1667 25.666 29.1667ZM27.9993 30.3333C27.9993 29.689 28.5217 29.1667 29.166 29.1667C29.8104 29.1667 30.3327 29.689 30.3327 30.3333V35C30.3327 35.6444 29.8104 36.1667 29.166 36.1667C28.5217 36.1667 27.9993 35.6444 27.9993 35V30.3333ZM32.666 29.1667C32.0217 29.1667 31.4993 29.689 31.4993 30.3333V35C31.4993 35.6444 32.0217 36.1667 32.666 36.1667C33.3104 36.1667 33.8327 35.6444 33.8327 35V30.3333C33.8327 29.689 33.3104 29.1667 32.666 29.1667Z"
    fill="white"
    className="fill-current"
  />
</svg>