<svg
  width="36"
  height="38"
  viewBox="0 0 36 38"
  fill="none"
  xmlns="http://www.w3.org/2000/svg"
>
  <rect
    width="36"
    height="37.3951"
    rx="18"

  />
  <path
    fillRule="evenodd"
    clipRule="evenodd"
    d="M18.0001 9.77344C18.3192 9.77344 18.6173 9.93912 18.7943 10.215L22.3291 15.7227H25.6365C26.1637 15.7227 26.591 16.1666 26.591 16.7142V17.7057C26.591 18.2533 26.1637 18.6973 25.6365 18.6973L24.8706 25.857C24.7631 26.8613 23.946 27.6211 22.9732 27.6211H13.027C12.0542 27.6211 11.237 26.8613 11.1296 25.857L10.3637 18.6973C9.83654 18.6973 9.40918 18.2533 9.40918 17.7057V16.7142C9.40918 16.1666 9.83654 15.7227 10.3637 15.7227H13.6711L17.2059 10.215C17.3829 9.93912 17.6809 9.77344 18.0001 9.77344ZM18.0001 12.5525L20.0347 15.7227H15.9655L18.0001 12.5525ZM15.1365 19.6888C14.6093 19.6888 14.1819 20.1327 14.1819 20.6803V24.6465C14.1819 25.1941 14.6093 25.638 15.1365 25.638C15.6636 25.638 16.091 25.1941 16.091 24.6465V20.6803C16.091 20.1327 15.6636 19.6888 15.1365 19.6888ZM17.0455 20.6803C17.0455 20.1327 17.4729 19.6888 18.0001 19.6888C18.5273 19.6888 18.9546 20.1327 18.9546 20.6803V24.6465C18.9546 25.1941 18.5273 25.638 18.0001 25.638C17.4729 25.638 17.0455 25.1941 17.0455 24.6465V20.6803ZM20.8637 19.6888C20.3365 19.6888 19.9092 20.1327 19.9092 20.6803V24.6465C19.9092 25.1941 20.3365 25.638 20.8637 25.638C21.3909 25.638 21.8183 25.1941 21.8183 24.6465V20.6803C21.8183 20.1327 21.3909 19.6888 20.8637 19.6888Z"
    fill="#1B202B"
  />
</svg>