<svg
  width="56"
  height="56"
  viewBox="0 0 56 56"
  fill="none"
  xmlns="http://www.w3.org/2000/svg"
  className='text-white'
>
  <path
    d="M55.5 28C55.5 43.1878 43.1878 55.5 28 55.5C12.8122 55.5 0.5 43.1878 0.5 28C0.5 12.8122 12.8122 0.5 28 0.5C43.1878 0.5 55.5 12.8122 55.5 28Z"
    stroke="#DBDEE7"
    className="stroke-current"
  />
  <path
    fillRule="evenodd"
    clipRule="evenodd"
    d="M29.166 38.5C34.965 38.5 39.666 33.799 39.666 28H37.3327C37.3327 32.5103 33.6763 36.1667 29.166 36.1667C24.6557 36.1667 20.9993 32.5103 20.9993 28C20.9993 23.4897 24.6557 19.8333 29.166 19.8333C30.4631 19.8333 31.6896 20.1357 32.7788 20.6739L34.3351 18.8584C32.8091 17.9937 31.0452 17.5 29.166 17.5C23.367 17.5 18.666 22.201 18.666 28C18.666 33.799 23.367 38.5 29.166 38.5ZM37.0332 24.1138C37.4643 23.6349 37.4254 22.8972 36.9465 22.4661C36.4676 22.0351 35.7299 22.074 35.2988 22.5529L28.7742 29.8025L26.4936 27.5072C26.0395 27.0501 25.3008 27.0477 24.8437 27.5018C24.3866 27.9559 24.3843 28.6946 24.8384 29.1517L27.9884 32.3223C28.2145 32.5498 28.5242 32.6743 28.8448 32.6663C29.1655 32.6584 29.4687 32.5189 29.6832 32.2805L37.0332 24.1138Z"
    fill="white"
    className="fill-current"
  />
</svg>