<svg
width="22"
height="22"
viewBox="0 0 22 22"
fill="none"
xmlns="http://www.w3.org/2000/svg"
className="hds-text-color"
>
<path
fillRule="evenodd"
clipRule="evenodd"
d="M11.9784 10.351L10.9999 7.31436L10.0216 10.3503L6.65958 10.3911L9.35763 12.496L8.41168 15.6725L11.0005 13.7486L13.588 15.6721L12.6424 12.4967L15.3404 10.3918L11.9784 10.351ZM19.4637 8.44168C19.982 8.448 20.1965 9.14025 19.7808 9.46424L19.4481 9.72379L14.9487 13.234L16.7436 19.2611C16.8978 19.7798 16.3366 20.2071 15.9136 19.8929L11.0003 16.2405L6.45603 19.6176L6.08645 19.8922C5.66405 20.2064 5.1022 19.7784 5.25641 19.2604L7.05126 13.2333L2.55195 9.72315L2.21917 9.46353C1.80348 9.13955 2.01803 8.4473 2.5363 8.44098L8.55915 8.36789L10.4867 2.38574C10.653 1.8713 11.3476 1.8713 11.5133 2.38645L13.4409 8.36859L19.4637 8.44168Z"
fill="#1B202B"
className="fill-current"
/>
</svg>