<svg
  width="22"
  height="22"
  viewBox="0 0 22 22"
  fill="none"
  xmlns="http://www.w3.org/2000/svg"
>
  <path
    fillRule="evenodd"
    clipRule="evenodd"
    d="M14 9C14 11.7614 11.7614 14 9 14C6.23858 14 4 11.7614 4 9C4 6.23858 6.23858 4 9 4C11.7614 4 14 6.23858 14 9ZM12.9307 14.793C11.8102 15.5548 10.4571 16 9 16C5.13401 16 2 12.866 2 9C2 5.13401 5.13401 2 9 2C12.866 2 16 5.13401 16 9C16 10.6849 15.4047 12.2307 14.413 13.4387L19.6757 18.2628C20.0828 18.636 20.1103 19.2686 19.7372 19.6757C19.364 20.0828 18.7314 20.1103 18.3243 19.7372L12.9307 14.793Z"
    stroke="#202020"
  />
</svg>