 <svg
  width="48"
  height="48"
  viewBox="0 0 45 45"
  fill="none"
  xmlns="http://www.w3.org/2000/svg"
>
  <path
    d="M44.1507 22.3253C44.1507 34.3791 34.3791 44.1507 22.3253 44.1507C10.2715 44.1507 0.5 34.3791 0.5 22.3253C0.5 10.2715 10.2715 0.5 22.3253 0.5C34.3791 0.5 44.1507 10.2715 44.1507 22.3253Z"
    stroke="#DBDEE7"
  />
  <path
    fillRule="evenodd"
    clipRule="evenodd"
    d="M18.6044 13.9531C18.8032 13.9531 18.9968 14.0168 19.1567 14.1348C19.1653 14.1413 19.1738 14.148 19.1822 14.1548L29.3383 21.5403C29.3389 21.5409 29.3395 21.5415 29.3401 21.5421L29.3547 21.553C29.6122 21.7255 29.7669 22.0151 29.7671 22.3251C29.7669 22.6375 29.6099 22.9289 29.3492 23.1009L19.1567 30.5154C18.9968 30.6335 18.8032 30.6971 18.6044 30.6971C18.0907 30.6971 17.6742 30.2807 17.6742 29.7669C17.6742 29.7657 17.6742 29.7645 17.6742 29.7633V22.3251V14.887C17.6742 14.8858 17.6742 14.8846 17.6742 14.8833C17.6742 14.3696 18.0907 13.9531 18.6044 13.9531Z"
    fill="#202020"
  />
</svg>