<svg
  width="56"
  height="56"
  viewBox="0 0 56 56"
  fill="none"
  xmlns="http://www.w3.org/2000/svg"
>
  <path
    d="M55.5 28C55.5 43.1878 43.1878 55.5 28 55.5C12.8122 55.5 0.5 43.1878 0.5 28C0.5 12.8122 12.8122 0.5 28 0.5C43.1878 0.5 55.5 12.8122 55.5 28Z"
    stroke="#DBDEE7"
    className="stroke-current"
  />
  <path
    fillRule="evenodd"
    clipRule="evenodd"
    d="M19.8327 21C19.1883 21 18.666 21.5223 18.666 22.1667V33.8333C18.666 34.4777 19.1883 35 19.8327 35H32.666C33.3104 35 33.8327 34.4777 33.8327 33.8333V22.1667C33.8327 21.5223 33.3104 21 32.666 21H19.8327ZM39.666 32.1834V23.8166C39.666 22.7772 38.4094 22.2567 37.6744 22.9916L34.9993 25.6667V30.3333L37.6744 33.0084C38.4094 33.7434 39.666 33.2228 39.666 32.1834Z"
    fill="white"
    className="fill-current"
  />
</svg>