<svg width="373" height="149" viewBox="0 0 373 149" fill="none" xmlns="http://www.w3.org/2000/svg">
<g clip-path="url(#djlogo)">
<path d="M23.5 122.5C19 122.5 15 121.5 11.4 119.5C7.8 117.5 5 114.4 3 110.1C1 105.9 0 100.5 0 93.9C0 87.3 1.1 81.9 3.4 77.5C5.7 73.1 8.7 69.8 12.5 67.6C16.3 65.4 20.5 64.3 25.1 64.3C27.8 64.3 30.5 64.6 33 65.3C35.5 65.9 37.7 66.9 39.6 68.2V53.4C39.6 51.8 39.4 50.6 38.9 49.9C38.4 49.2 37.4 48.6 35.9 48.2L33.6 47.7V45.5L53.5 40.6L55 41.6L54.5 57.7V112.7C54.5 114.1 54.8 115.3 55.3 116.3C55.8 117.3 56.8 117.9 58.2 118.3L59.5 118.6V120.8L40.5 122.1L39.5 117.3C37.4 118.9 35.1 120.2 32.4 121.1C29.7 122 26.7 122.5 23.5 122.5ZM29.8 117.2C33.1 117.2 36.2 116.1 39.1 114V71.5C36.3 69.7 33.2 68.9 30 68.9C26.3 68.9 23.1 70.9 20.4 74.8C17.7 78.7 16.4 85 16.4 93.7C16.4 102.4 17.7 108.5 20.2 112C22.6 115.5 25.9 117.2 29.8 117.2Z" fill="#ecc94b"/>
<path d="M64.7 120.9V118.7L66.4 118.2C67.9 117.7 69 117.1 69.5 116.1C70 115.2 70.3 114 70.4 112.4V91.4C70.4 89 70.4 86.8 70.4 84.8C70.4 82.8 70.4 80.7 70.3 78.6C70.3 77.1 70 75.9 69.4 75C68.8 74.1 67.8 73.5 66.3 73.2L64.7 73V71L84.7 64.4L86.1 65.7L85.8 81.9V112.8C85.8 114.3 86.1 115.5 86.7 116.5C87.3 117.4 88.3 118.1 89.7 118.6L91 118.9V121.1H64.7V120.9Z" fill="#ecc94b"/>
<path d="M115.6 122.5C111.9 122.5 108.6 122.1 105.7 121.3C102.8 120.5 100 119.4 97.3001 117.9V104.4H100.4L103.8 110.9C105.2 113.7 106.9 115.8 108.8 117.2C110.7 118.6 113 119.3 115.9 119.3C119.5 119.3 122.3 118.5 124.5 117C126.6 115.4 127.7 113.3 127.7 110.7C127.7 108.3 126.9 106.3 125.3 104.8C123.7 103.3 120.8 101.9 116.7 100.6L111.7 99C107.2 97.6 103.6 95.6 101 92.8C98.4001 90 97.1001 86.5 97.1001 82.3C97.1001 79 98.0001 76 99.7001 73.3C101.5 70.6 104 68.4 107.4 66.8C110.8 65.2 114.8 64.4 119.6 64.4C122.7 64.4 125.6 64.8 128.2 65.5C130.8 66.2 133.4 67.2 135.9 68.5L135.2 80.7H132.2L128.7 74.2C127.5 71.8 126.2 70.1 125 69.1C123.7 68.1 121.8 67.7 119.2 67.7C116.5 67.7 114 68.4 111.9 69.8C109.8 71.2 108.8 73.2 108.8 75.7C108.8 78.1 109.7 80 111.4 81.5C113.2 83 116 84.4 119.9 85.7L124.8 87.2C130.4 89 134.3 91.3 136.7 94.2C139.1 97.1 140.2 100.6 140.2 104.6C140.2 110 138 114.4 133.7 117.7C129.6 120.8 123.5 122.5 115.6 122.5Z" fill="#ecc94b"/>
<path d="M142.7 148.4C138.5 148.4 135.5 147.7 133.7 146.2C131.9 144.8 131 142.9 131 140.6C131 138.5 131.7 136.9 133.2 135.6C134.6 134.3 136.4 133.7 138.3 133.7C140.3 133.7 142.1 134.2 143.7 135.2C145.3 136.2 146.7 137.7 147.6 139.7L148.5 141.5C149.1 142.5 149.8 142.8 150.4 142.5C151.1 142.2 151.5 141 151.5 139.1C151.7 135.4 151.8 131.5 151.8 127.6C151.9 123.6 151.9 118.7 151.9 112.7V78.7C151.8 75.6 150.3 73.8 147.2 73.3L145.5 73V71L165.8 64.4L167.4 65.7L167.1 81.9V113C167.1 118.1 166.9 122.4 166.5 125.8C166.1 129.2 165.4 132.1 164.3 134.5C163.3 136.9 161.8 139.1 159.9 141.1C157.3 143.7 154.5 145.6 151.6 146.7C148.9 147.9 145.8 148.4 142.7 148.4Z" fill="#ecc94b"/>
<path d="M205.6 122.5C200 122.5 195 121.3 190.8 119C186.6 116.7 183.3 113.3 181 108.9C178.7 104.6 177.5 99.4 177.5 93.4C177.5 87.4 178.7 82.2 181.2 77.9C183.7 73.6 187 70.2 191.3 67.9C195.5 65.6 200.3 64.4 205.6 64.4C210.9 64.4 215.7 65.6 219.9 67.9C224.1 70.2 227.5 73.5 230 77.8C232.5 82.1 233.7 87.3 233.7 93.4C233.7 99.4 232.5 104.6 230.2 109C227.9 113.4 224.6 116.7 220.4 119.1C216.2 121.3 211.3 122.5 205.6 122.5ZM205.6 119.3C208.3 119.3 210.6 118.6 212.3 117.1C214 115.6 215.3 113 216 109.3C216.8 105.6 217.1 100.3 217.1 93.6C217.1 86.8 216.7 81.5 216 77.8C215.2 74 214 71.4 212.3 69.9C210.6 68.4 208.4 67.7 205.6 67.7C202.9 67.7 200.6 68.4 199 69.9C197.3 71.4 196.1 74 195.3 77.8C194.5 81.6 194.1 86.8 194.1 93.6C194.1 100.3 194.5 105.5 195.3 109.3C196.1 113 197.3 115.6 199 117.1C200.6 118.6 202.8 119.3 205.6 119.3Z" fill="#ecc94b"/>
<path d="M239 120.9V118.7L240.7 118.2C242.2 117.7 243.3 117.1 243.8 116.1C244.3 115.2 244.6 114 244.7 112.4V91.4C244.7 89 244.7 86.8 244.7 84.8C244.7 82.8 244.7 80.7 244.6 78.6C244.6 77.1 244.3 75.9 243.7 75C243.1 74.1 242.1 73.5 240.6 73.2L239 73V71L259 64.4L260.4 65.7L260.1 81.9V112.8C260.1 114.3 260.4 115.5 261 116.5C261.6 117.4 262.6 118.1 264 118.6L265.3 118.9V121.1H239V120.9Z" fill="#ecc94b"/>
<path d="M270.2 120.9V118.7L272 118.2C274.5 117.4 275.8 115.6 275.8 112.6V79C275.7 77.4 275.5 76.2 275 75.3C274.5 74.4 273.6 73.8 272 73.5L270.2 73V71L288.7 64.4L290.1 65.7L290.9 72.8C293.6 70.4 296.7 68.4 300.1 66.8C303.5 65.2 306.8 64.5 310.1 64.5C315.1 64.5 319 65.9 321.7 68.6C324.4 71.3 325.8 75.5 325.8 81.2V113C325.8 116 327.2 117.8 329.9 118.6L331.2 118.9V121.1H304.9V118.9L306.6 118.4C309.1 117.6 310.4 115.7 310.4 112.8V78.7C310.4 76 309.8 74.1 308.7 72.9C307.6 71.7 305.7 71.1 303 71.1C299.3 71.1 295.4 72.7 291.3 76V112.8C291.3 115.8 292.6 117.6 295.3 118.4L296.4 118.7V120.9H270.2Z" fill="#ecc94b"/>
<path d="M356.7 122.5C352 122.5 348.3 121.3 345.6 119C342.9 116.7 341.5 112.9 341.5 107.6C341.5 105.8 341.5 104 341.6 102.4C341.6 100.8 341.7 98.8 341.7 96.6V69.6H333.6V67.1L336.7 66.6C338.9 66.2 340.8 65.5 342.4 64.5C344 63.5 345.4 62.1 346.7 60.4L354.1 50.1H357.5L357.1 66H370.1V69.5H357V108.5C357 111.2 357.6 113.3 358.8 114.7C360 116.1 361.4 116.8 363.2 116.8C364.7 116.8 366.1 116.4 367.3 115.7C368.5 115 369.7 114 371 112.8L372.5 114.5C371.1 117 369 119 366.4 120.4C363.7 121.8 360.5 122.5 356.7 122.5Z" fill="#ecc94b"/>
<path d="M77.8 60.4C71.7 60.4 66.7 55.4 66.7 49.2999C66.7 43.1999 71.7 38.2 77.8 38.2C83.9 38.2 88.9 43.1999 88.9 49.2999C88.9 55.4 83.9 60.4 77.8 60.4ZM77.8 42.0999C73.9 42.0999 70.7 45.3 70.7 49.2C70.7 53.1 73.9 56.2999 77.8 56.2999C81.7 56.2999 84.9 53.1 84.9 49.2C84.9 45.3 81.7 42.0999 77.8 42.0999Z" fill="#ecc94b"/>
<path d="M251.5 22.2C245.4 22.2 240.4 17.2 240.4 11.1C240.4 5 245.4 0 251.5 0C257.6 0 262.6 5 262.6 11.1C262.6 17.2 257.7 22.2 251.5 22.2ZM251.5 4C247.6 4 244.4 7.2 244.4 11.1C244.4 15 247.6 18.2 251.5 18.2C255.4 18.2 258.6 15 258.6 11.1C258.6 7.2 255.5 4 251.5 4Z" fill="#ecc94b"/>
<path d="M241.528 11.7063L87.3066 45.5917L88.165 49.4985L242.386 15.6131L241.528 11.7063Z" fill="#ecc94b"/>
</g>
<defs>
<clipPath id="djlogo">
<rect width="372.4" height="148.4" fill="white"/>
</clipPath>
</defs>
</svg>
