<svg width="49" height="49" viewBox="0 0 49 49" fill="none" xmlns="http://www.w3.org/2000/svg">
<path d="M30.246 29.8376L28.2182 31.8654H13.9307L14.0098 34.3011H29.227C30.3779 33.1502 31.5288 31.9994 32.6796 30.8485C32.6796 30.5359 32.6796 30.1523 32.6796 29.8397" fill="#000"/>
<path d="M12.8201 34.3011H9.54199V31.8654H12.8282" fill="#000"/>
<path d="M15.9318 23.3403H11.7769L8.32422 19.8857V13.3965L11.7769 9.94385H31.4636V12.3796H12.7857L10.7599 14.4053V18.8769L12.7857 20.9046H15.9074" fill="#000"/>
<path d="M30.2457 28.7943C30.2457 27.6393 30.2457 26.5209 30.2457 25.368C29.5698 24.6921 28.8938 24.0162 28.2179 23.3403H17.2673L17.2612 20.9045H29.2267L32.6814 24.3572C32.6814 25.843 32.6814 27.3288 32.6814 28.8146" fill="#000"/>
<path d="M34.7073 39.7814H13.8047V15.4242H34.7093L38.1619 18.8768V25.366L35.9271 27.6008L38.1619 29.8376V36.3268L34.7073 39.7814ZM16.2404 37.3457H33.6985L35.7262 35.318V30.8464L32.4806 27.6008L35.7262 24.3572V19.8856L33.6985 17.8579H16.2404V37.3457Z" fill="#000"/>
<path d="M34.2038 26.385H15.0225V28.8207H34.2038V26.385Z" fill="#000"/>
<path d="M48.1035 48.002H0.103516V0L9.48917 9.38566L7.76793 11.1089L2.53924 5.88024V45.5663H42.2233L36.9966 40.3376L38.7179 38.6143L48.1035 48.002Z" fill="#000"/>
</svg>
