<svg width="351" height="176" viewBox="0 0 351 176" fill="none" xmlns="http://www.w3.org/2000/svg">
<path d="M15.8835 152.043H11.2501V150.999C11.2501 149.939 11.0012 149.023 10.5033 148.252C10.0055 147.482 9.16232 147.096 7.98993 147.096C7.35556 147.096 6.84163 147.217 6.44816 147.457C6.05468 147.698 5.73348 148.004 5.49258 148.365C5.25167 148.758 5.08304 149.2 4.99471 149.706C4.90638 150.204 4.8582 150.726 4.8582 151.272C4.8582 151.906 4.88229 152.436 4.93047 152.862C4.97865 153.287 5.09107 153.665 5.26773 153.994C5.45243 154.331 5.70939 154.612 6.06271 154.861C6.40801 155.102 6.88981 155.343 7.49207 155.584L11.0333 156.989C12.0612 157.383 12.8963 157.848 13.5307 158.37C14.1651 158.9 14.6629 159.511 15.0323 160.209C15.3615 160.932 15.5944 161.759 15.7149 162.683C15.8353 163.606 15.8996 164.658 15.8996 165.838C15.8996 167.195 15.7631 168.464 15.49 169.629C15.217 170.793 14.7754 171.781 14.1731 172.6C13.5387 173.451 12.7036 174.117 11.6757 174.599C10.6479 175.081 9.3952 175.33 7.90963 175.33C6.79345 175.33 5.74954 175.129 4.7779 174.736C3.80626 174.342 2.97916 173.796 2.28054 173.106C1.58193 172.407 1.03588 171.596 0.626346 170.673C0.208782 169.749 0 168.745 0 167.653V165.927H4.63336V167.38C4.63336 168.231 4.88229 168.994 5.38016 169.677C5.87802 170.359 6.72118 170.697 7.9016 170.697C8.68855 170.697 9.29884 170.584 9.74049 170.359C10.1821 170.134 10.5194 169.805 10.7603 169.388C11.0012 168.962 11.1458 168.456 11.1939 167.862C11.2421 167.276 11.2662 166.617 11.2662 165.887C11.2662 165.043 11.2341 164.345 11.1779 163.799C11.1136 163.253 10.9932 162.811 10.8165 162.482C10.6077 162.153 10.3267 161.88 9.98139 161.663C9.6361 161.454 9.17035 161.221 8.60022 160.98L5.28379 159.615C3.2843 158.796 1.95131 157.72 1.26875 156.371C0.586196 155.03 0.248933 153.335 0.248933 151.312C0.248933 150.107 0.417564 148.951 0.746798 147.859C1.07603 146.775 1.58193 145.835 2.24842 145.048C2.8828 144.261 3.69384 143.635 4.67351 143.161C5.65318 142.688 6.8336 142.455 8.19068 142.455C9.33899 142.455 10.3909 142.672 11.3465 143.089C12.3021 143.515 13.1212 144.077 13.8198 144.767C15.209 146.221 15.9076 147.883 15.9076 149.762V152.043H15.8835Z" fill="black"/>
<path d="M31.4537 175.049V147.096H26.0977V142.736H41.4351V147.096H36.0791V175.049H31.4537Z" fill="black"/>
<path d="M47.9717 175.049L55.1907 142.736H59.0452L66.2642 175.049H61.6389L60.2738 168.103H53.9621L52.605 175.049H47.9717ZM59.4065 163.751L57.142 152.043H57.0537L54.7892 163.751H59.4065Z" fill="black"/>
<path d="M77.6108 175.049V142.736H85.0547C90.4991 142.736 93.2213 145.9 93.2213 152.219C93.2213 154.122 92.9242 155.744 92.338 157.077C91.7438 158.41 90.7079 159.478 89.2304 160.298L94.2251 175.049H89.3267L85.0146 161.253H82.2442V175.049H77.6108ZM82.2362 147.096V157.174H84.87C85.6891 157.174 86.3396 157.061 86.8214 156.829C87.3032 156.604 87.6806 156.274 87.9536 155.857C88.1945 155.439 88.3631 154.909 88.4515 154.291C88.5398 153.673 88.588 152.95 88.588 152.139C88.588 151.32 88.5398 150.605 88.4515 149.979C88.3631 149.361 88.1784 148.823 87.9054 148.365C87.3273 147.514 86.2432 147.096 84.6372 147.096H82.2362Z" fill="black"/>
<path d="M108.246 175.049V147.096H102.89V142.736H118.227V147.096H112.871V175.049H108.246Z" fill="black"/>
<path d="M129.485 175.049V142.736H134.119V175.049H129.485Z" fill="black"/>
<path d="M147.497 175.049V142.736H151.946L158.932 162.201H159.02V142.736H163.646V175.049H159.285L152.203 155.624H152.114V175.049H147.497Z" fill="black"/>
<path d="M176.638 150.364C176.638 149.064 176.863 147.915 177.32 146.911C177.778 145.916 178.38 145.081 179.135 144.422C179.858 143.788 180.685 143.306 181.609 142.969C182.532 142.639 183.464 142.471 184.403 142.471C185.343 142.471 186.274 142.639 187.189 142.969C188.113 143.306 188.948 143.788 189.711 144.422C190.434 145.089 191.028 145.916 191.486 146.911C191.935 147.915 192.168 149.064 192.168 150.364V152.003H187.535V150.364C187.535 149.248 187.222 148.421 186.603 147.891C185.985 147.361 185.246 147.096 184.403 147.096C183.552 147.096 182.821 147.361 182.203 147.891C181.584 148.421 181.271 149.24 181.271 150.364V167.428C181.271 168.545 181.584 169.372 182.203 169.902C182.821 170.432 183.56 170.697 184.403 170.697C185.246 170.697 185.985 170.432 186.603 169.902C187.222 169.372 187.535 168.553 187.535 167.428V161.342H183.857V157.254H192.16V167.42C192.16 168.777 191.935 169.95 191.478 170.913C191.02 171.885 190.434 172.68 189.703 173.314C188.948 173.981 188.105 174.479 187.181 174.816C186.258 175.145 185.326 175.314 184.395 175.314C183.455 175.314 182.524 175.145 181.601 174.816C180.677 174.487 179.85 173.981 179.127 173.314C178.372 172.68 177.77 171.877 177.312 170.913C176.855 169.942 176.63 168.777 176.63 167.42V150.364H176.638Z" fill="black"/>
<path d="M222.835 175.049V142.736H229.596C231.082 142.736 232.343 142.961 233.387 143.418C234.43 143.876 235.282 144.478 235.948 145.233C236.615 145.988 237.088 146.855 237.377 147.843C237.667 148.831 237.811 149.85 237.811 150.91V152.091C237.811 152.966 237.739 153.713 237.602 154.315C237.466 154.917 237.265 155.455 236.992 155.905C236.478 156.756 235.691 157.479 234.631 158.081C235.723 158.595 236.518 159.35 237.04 160.354C237.554 161.349 237.811 162.715 237.811 164.441V166.256C237.811 169.099 237.121 171.283 235.747 172.792C234.366 174.302 232.166 175.057 229.147 175.057H222.835V175.049ZM227.468 147.096V155.993H229.556C231.098 155.993 232.134 155.608 232.664 154.837C233.194 154.066 233.459 152.942 233.459 151.456C233.459 150.003 233.162 148.919 232.575 148.188C231.989 147.457 230.921 147.096 229.379 147.096H227.468ZM227.468 160.073V170.424H229.468C230.407 170.424 231.138 170.287 231.668 170.014C232.198 169.741 232.6 169.364 232.873 168.882C233.146 168.4 233.314 167.822 233.37 167.155C233.435 166.489 233.459 165.766 233.459 164.979C233.459 164.16 233.411 163.453 233.322 162.851C233.234 162.249 233.049 161.735 232.776 161.309C232.471 160.884 232.062 160.571 231.548 160.378C231.034 160.185 230.351 160.081 229.508 160.081H227.468V160.073Z" fill="black"/>
<path d="M251.246 175.049V142.736H255.871V170.424H265.041V175.049H251.246Z" fill="black"/>
<path d="M276.846 150.364C276.846 149.064 277.071 147.915 277.528 146.911C277.986 145.916 278.588 145.081 279.343 144.422C280.066 143.788 280.893 143.306 281.816 142.969C282.74 142.639 283.671 142.471 284.611 142.471C285.55 142.471 286.482 142.639 287.397 142.969C288.321 143.306 289.156 143.788 289.919 144.422C290.641 145.089 291.236 145.916 291.693 146.911C292.143 147.915 292.376 149.064 292.376 150.364V167.428C292.376 168.785 292.151 169.958 291.693 170.921C291.236 171.893 290.649 172.688 289.919 173.322C289.164 173.989 288.321 174.487 287.397 174.824C286.474 175.153 285.542 175.322 284.611 175.322C283.671 175.322 282.74 175.153 281.816 174.824C280.893 174.495 280.066 173.989 279.343 173.322C278.588 172.688 277.986 171.885 277.528 170.921C277.071 169.95 276.846 168.785 276.846 167.428V150.364ZM281.471 167.428C281.471 168.545 281.784 169.372 282.403 169.902C283.021 170.432 283.76 170.697 284.603 170.697C285.446 170.697 286.185 170.432 286.803 169.902C287.421 169.372 287.735 168.553 287.735 167.428V150.364C287.735 149.248 287.421 148.421 286.803 147.891C286.185 147.361 285.446 147.096 284.603 147.096C283.752 147.096 283.021 147.361 282.403 147.891C281.784 148.421 281.471 149.24 281.471 150.364V167.428Z" fill="black"/>
<path d="M320.233 165.838V167.83C320.233 168.834 320.048 169.773 319.662 170.665C319.285 171.556 318.763 172.351 318.097 173.049C317.43 173.748 316.651 174.294 315.76 174.712C314.868 175.121 313.905 175.322 312.877 175.322C312.002 175.322 311.102 175.202 310.203 174.953C309.295 174.712 308.476 174.286 307.754 173.684C307.031 173.082 306.429 172.303 305.963 171.347C305.497 170.391 305.256 169.179 305.256 167.693V149.907C305.256 148.847 305.441 147.867 305.802 146.96C306.164 146.052 306.678 145.265 307.344 144.599C308.011 143.932 308.806 143.41 309.729 143.033C310.653 142.656 311.672 142.463 312.797 142.463C314.973 142.463 316.748 143.177 318.105 144.599C318.771 145.289 319.293 146.116 319.67 147.072C320.048 148.028 320.241 149.064 320.241 150.18V151.995H315.615V150.453C315.615 149.545 315.358 148.758 314.844 148.092C314.33 147.425 313.632 147.096 312.757 147.096C311.608 147.096 310.845 147.449 310.468 148.156C310.09 148.871 309.898 149.77 309.898 150.854V167.372C309.898 168.312 310.107 169.099 310.508 169.733C310.918 170.367 311.648 170.689 312.708 170.689C313.005 170.689 313.335 170.64 313.68 170.528C314.025 170.424 314.355 170.255 314.652 170.006C314.925 169.765 315.149 169.436 315.334 169.01C315.519 168.585 315.607 168.055 315.607 167.42V165.83H320.233V165.838Z" fill="black"/>
<path d="M333.081 175.049V142.736H337.706V157.487H337.794L344.556 142.736H349.189L342.877 155.672L350.369 175.049H345.471L340.203 160.707L337.706 165.381V175.049H333.081Z" fill="black"/>
<path d="M198.054 66.6826L193.549 71.1875H161.782L161.959 76.5998H195.798C198.359 74.0382 200.921 71.4766 203.474 68.923C203.474 68.2244 203.474 67.3732 203.474 66.6826" fill="black"/>
<path d="M159.309 76.5999H152.018V71.1876H159.325" fill="black"/>
<path d="M166.223 52.2285H156.989L149.304 44.5518V30.1217L156.989 22.4369H200.761V27.8572H159.229L154.724 32.3621V42.3034L159.229 46.8163H166.175" fill="black"/>
<path d="M198.054 64.3539C198.054 61.7843 198.054 59.303 198.054 56.7333C196.553 55.2317 195.051 53.7301 193.55 52.2284H169.194L169.178 46.8162H195.782L203.459 54.4929C203.459 57.7933 203.459 61.1017 203.459 64.4021" fill="black"/>
<path d="M207.979 88.7894H161.493V34.6265H207.979L215.656 42.3032V56.7333L210.686 61.7039L215.656 66.6746V81.1047L207.979 88.7894ZM166.905 83.3691H205.731L210.236 78.8643V68.923L203.017 61.7039L210.236 54.4849V44.5517L205.731 40.0468H166.905V83.3691Z" fill="black"/>
<path d="M206.855 58.9978H164.199V64.4101H206.855V58.9978Z" fill="black"/>
<path d="M237.763 107.066H131.027V0.329956L151.898 21.2002L148.067 25.0305L136.44 13.403V101.654H224.69L213.063 90.0261L216.893 86.1958L237.763 107.066Z" fill="black"/>
</svg>
